# Blender v3.0.1 OBJ File: 'monirold.blend'
# www.blender.org
mtllib monirold2.mtl
o Cube_Cube.001
v -0.581308 -0.086437 0.710229
v -0.565425 1.076802 0.710229
v -0.653258 -0.182256 -0.364325
v -0.646422 1.165533 -0.364325
v 0.578959 -0.088973 0.710229
v 0.580181 1.070920 0.710229
v 0.653258 -0.185421 -0.364325
v 0.669210 1.156417 -0.364325
v 0.000000 -0.215729 -0.363554
v 0.000000 1.206551 -0.364325
v 0.000000 -0.102961 0.710229
v 0.000000 1.095606 0.710229
v 0.355114 1.206551 -0.364325
v 0.355114 -0.102961 0.710229
v 0.355114 -0.215729 -0.363554
v 0.355114 1.095606 0.710229
v 0.532671 1.206551 -0.364325
v 0.519746 -0.102961 0.710229
v 0.532671 -0.215729 -0.363554
v 0.512947 1.095606 0.710229
v -0.355114 -0.215729 -0.363554
v -0.355114 1.095606 0.710229
v -0.355114 1.206551 -0.364325
v -0.355114 -0.102961 0.710229
v -0.532671 -0.213906 -0.364325
v -0.513279 1.095606 0.710229
v -0.532671 1.206551 -0.364325
v -0.518354 -0.102961 0.710229
v -0.599284 0.496323 0.710229
v -0.710229 0.496323 -0.364325
v 0.710229 0.496323 -0.364325
v 0.599284 0.496323 0.710229
v -0.000000 0.655840 -0.815531
v 0.355114 0.655840 -0.815531
v 0.532671 0.655840 -0.815531
v -0.355114 0.655840 -0.815531
v -0.532671 0.655840 -0.815531
v -0.710229 0.141208 -0.364325
v 0.710229 0.141208 -0.364325
v 0.599284 0.141208 0.710229
v -0.000000 0.300725 -0.815531
v 0.355114 0.300725 -0.815531
v 0.532671 0.300725 -0.815531
v -0.355114 0.300725 -0.815531
v -0.532671 0.300725 -0.815531
v -0.599284 0.141208 0.710229
v -0.599284 0.851437 0.710229
v -0.710229 0.851437 -0.364325
v 0.710229 0.851437 -0.364325
v 0.599284 0.851437 0.710229
v -0.000000 0.931195 -0.589928
v 0.355114 0.931195 -0.589928
v 0.532671 0.931195 -0.589928
v -0.355114 0.931195 -0.589928
v -0.532671 0.931195 -0.589928
v -0.599284 1.004350 0.710229
v -0.710229 1.028994 -0.364325
v 0.710229 1.028994 -0.364325
v 0.599284 1.011577 0.710229
v -0.000000 1.068873 -0.477127
v 0.355114 1.068873 -0.477127
v 0.532671 1.068873 -0.477127
v -0.355114 1.068873 -0.477127
v -0.532671 1.068873 -0.477127
v -0.710229 -0.036349 -0.364325
v 0.710229 -0.036349 -0.364325
v 0.599284 -0.021732 0.710229
v -0.000000 0.042498 -0.589542
v 0.355114 0.042498 -0.589542
v 0.532671 0.042498 -0.589542
v -0.355114 0.042498 -0.589542
v -0.532671 0.043410 -0.589928
v -0.599284 -0.023737 0.710229
v -0.691239 -0.118797 -0.364325
v 0.687440 -0.121329 -0.364325
v 0.583571 -0.080326 0.710229
v -0.000000 -0.086615 -0.476548
v 0.355114 -0.086615 -0.476548
v 0.532671 -0.086615 -0.476548
v -0.355114 -0.086615 -0.476548
v -0.532671 -0.085248 -0.477127
v -0.587053 -0.076840 0.710229
v -0.710229 1.028994 0.710229
v -0.646422 1.165533 0.710229
v 0.687440 -0.121329 0.710229
v 0.653258 -0.185421 0.710229
v 0.532671 -0.213906 0.710229
v -0.532671 1.206551 0.710229
v -0.355114 -0.213906 0.710229
v 0.000000 -0.213906 0.710229
v 0.355114 1.206551 0.710229
v 0.000000 1.206551 0.710229
v 0.355114 -0.213906 0.710229
v 0.532671 1.206551 0.710229
v 0.669210 1.156417 0.710229
v -0.355114 1.206551 0.710229
v -0.532671 -0.213906 0.710229
v -0.653258 -0.182256 0.710229
v -0.710229 0.141208 0.710229
v -0.710229 0.496323 0.710229
v 0.710229 0.851437 0.710229
v 0.710229 0.496323 0.710229
v 0.710229 0.141208 0.710229
v -0.710229 -0.036349 0.710229
v -0.710229 0.851437 0.710229
v 0.710229 1.028994 0.710229
v 0.710229 -0.036349 0.710229
v -0.691239 -0.118797 0.710229
vt 0.593750 0.000000
vt 0.625000 0.000000
vt 0.625000 0.250000
vt 0.593750 0.250000
vt 0.593750 0.468750
vt 0.625000 0.468750
vt 0.625000 0.500000
vt 0.593750 0.500000
vt 0.625000 0.750000
vt 0.593750 0.750000
vt 0.343750 0.500000
vt 0.375000 0.500000
vt 0.375000 0.750000
vt 0.343750 0.750000
vt 0.843750 0.500000
vt 0.875000 0.500000
vt 0.875000 0.750000
vt 0.843750 0.750000
vt 0.687500 0.500000
vt 0.750000 0.500000
vt 0.750000 0.750000
vt 0.687500 0.750000
vt 0.187500 0.500000
vt 0.250000 0.500000
vt 0.250000 0.750000
vt 0.187500 0.750000
vt 0.593750 0.312500
vt 0.625000 0.312500
vt 0.625000 0.375000
vt 0.593750 0.375000
vt 0.656250 0.500000
vt 0.656250 0.750000
vt 0.312500 0.500000
vt 0.312500 0.750000
vt 0.625000 0.437500
vt 0.593750 0.437500
vt 0.593750 0.281250
vt 0.625000 0.281250
vt 0.156250 0.500000
vt 0.156250 0.750000
vt 0.812500 0.500000
vt 0.812500 0.750000
vt 0.125000 0.500000
vt 0.125000 0.750000
vt 0.437500 0.250000
vt 0.500000 0.250000
vt 0.500000 0.281250
vt 0.437500 0.281250
vt 0.500000 0.312500
vt 0.437500 0.312500
vt 0.437500 0.437500
vt 0.500000 0.437500
vt 0.500000 0.468750
vt 0.437500 0.468750
vt 0.437500 0.375000
vt 0.500000 0.375000
vt 0.437500 0.500000
vt 0.500000 0.500000
vt 0.500000 0.750000
vt 0.437500 0.750000
vt 0.437500 0.000000
vt 0.500000 0.000000
vt 0.406250 0.000000
vt 0.406250 0.250000
vt 0.406250 0.468750
vt 0.406250 0.500000
vt 0.406250 0.750000
vt 0.406250 0.312500
vt 0.406250 0.375000
vt 0.406250 0.437500
vt 0.406250 0.281250
vt 0.562500 0.250000
vt 0.562500 0.281250
vt 0.562500 0.312500
vt 0.562500 0.437500
vt 0.562500 0.468750
vt 0.562500 0.375000
vt 0.562500 0.500000
vt 0.562500 0.750000
vt 0.562500 0.000000
vt 0.390625 0.250000
vt 0.390625 0.281250
vt 0.390625 0.312500
vt 0.390625 0.437500
vt 0.390625 0.468750
vt 0.390625 0.375000
vt 0.390625 0.500000
vt 0.390625 0.750000
vt 0.390625 0.000000
vt 0.375000 0.000000
vt 0.375000 0.250000
vt 0.375000 0.468750
vt 0.375000 0.312500
vt 0.375000 0.375000
vt 0.375000 0.437500
vt 0.375000 0.281250
vt 0.589413 0.980474
vt 0.602845 0.975574
vt 0.625000 1.000000
vt 0.593750 1.000000
vt 0.398400 0.771633
vt 0.397906 0.773621
vt 0.394526 0.783525
vt 0.375000 0.781250
vt 0.605474 0.965337
vt 0.625000 0.968750
vt 0.394526 0.875000
vt 0.394526 0.937500
vt 0.375000 0.937500
vt 0.375000 0.875000
vt 0.605474 0.875000
vt 0.605474 0.812500
vt 0.625000 0.812500
vt 0.625000 0.875000
vt 0.394526 0.812500
vt 0.375000 0.812500
vt 0.604836 0.785243
vt 0.625000 0.781250
vt 0.602079 0.772111
vt 0.605474 0.937500
vt 0.625000 0.937500
vt 0.395623 0.964350
vt 0.375000 0.968750
vt 0.398380 0.976295
vt 0.375000 1.000000
vt 0.437500 0.980474
vt 0.500000 0.980474
vt 0.500000 1.000000
vt 0.437500 1.000000
vt 0.562500 0.769526
vt 0.500000 0.769526
vt 0.437500 0.769526
vt 0.408546 0.980245
vt 0.406250 1.000000
vt 0.562500 0.980474
vt 0.562500 1.000000
vt 0.590111 0.769995
vt 0.408876 0.769844
vt 0.400429 0.976793
vt 0.390625 1.000000
vn -0.9060 0.4234 0.0000
vn 0.4101 0.4101 -0.8147
vn 0.9519 0.3064 0.0000
vn 0.2368 -0.9715 0.0008
vn -0.3392 0.9407 0.0000
vn 0.0000 1.0000 0.0000
vn 0.0000 -1.0000 0.0017
vn 0.0000 0.6338 -0.7735
vn 0.3447 0.9387 0.0000
vn -0.0051 -1.0000 0.0008
vn -0.2539 -0.9672 0.0000
vn -0.4272 0.4272 -0.7969
vn -0.9305 0.0000 -0.3662
vn 0.0000 0.0000 -1.0000
vn 1.0000 0.0000 0.0000
vn 0.9305 0.0000 -0.3662
vn -1.0000 0.0000 0.0000
vn 0.8101 -0.2699 -0.5204
vn 0.0000 -0.6586 -0.7525
vn -0.0009 -0.6589 -0.7522
vn -0.8101 -0.2700 -0.5205
vn -0.8963 0.1494 -0.4175
vn 0.8963 0.1494 -0.4175
vn -0.7109 0.2370 -0.6622
vn 0.7109 0.2370 -0.6622
vn -0.5657 -0.4276 -0.7051
vn -0.0022 -0.6589 -0.7522
vn 0.9659 -0.2590 0.0000
vn 0.5661 -0.4311 -0.7026
vn -0.9745 -0.2245 0.0000
vn -0.8581 -0.5136 0.0000
vn 0.3133 -0.5201 -0.7946
vn 0.8824 -0.4706 0.0000
vn -0.0031 -0.6589 -0.7522
vn -0.3155 -0.5261 -0.7897
vn 0.0000 0.0000 1.0000
usemtl None
s off
f 83/1/1 84/2/1 4/3/1 57/4/1
f 62/5/2 17/6/2 8/7/2 58/8/2
f 58/8/3 8/7/3 95/9/3 106/10/3
f 19/11/4 7/12/4 86/13/4 87/14/4
f 27/15/5 4/16/5 84/17/5 88/18/5
f 13/19/6 10/20/6 92/21/6 91/22/6
f 21/23/7 9/24/7 90/25/7 89/26/7
f 63/27/8 23/28/8 10/29/8 60/30/8
f 17/31/6 13/19/6 91/22/6 94/32/6
f 9/24/7 15/33/7 93/34/7 90/25/7
f 60/30/8 10/29/8 13/35/8 61/36/8
f 8/7/9 17/31/9 94/32/9 95/9/9
f 15/33/7 19/11/7 87/14/7 93/34/7
f 61/36/8 13/35/8 17/6/8 62/5/8
f 64/37/8 27/38/8 23/28/8 63/27/8
f 25/39/10 21/23/10 89/26/10 97/40/10
f 10/20/6 23/41/6 96/42/6 92/21/6
f 3/43/11 25/39/11 97/40/11 98/44/11
f 57/4/12 4/3/12 27/38/12 64/37/12
f 23/41/6 27/15/6 88/18/6 96/42/6
f 38/45/13 30/46/13 37/47/13 45/48/13
f 45/48/14 37/47/14 36/49/14 44/50/14
f 42/51/14 34/52/14 35/53/14 43/54/14
f 41/55/14 33/56/14 34/52/14 42/51/14
f 44/50/14 36/49/14 33/56/14 41/55/14
f 39/57/15 31/58/15 102/59/15 103/60/15
f 43/54/16 35/53/16 31/58/16 39/57/16
f 99/61/17 100/62/17 30/46/17 38/45/17
f 104/63/17 99/61/17 38/45/17 65/64/17
f 70/65/18 43/54/18 39/57/18 66/66/18
f 66/66/15 39/57/15 103/60/15 107/67/15
f 71/68/19 44/50/19 41/55/19 68/69/19
f 68/69/19 41/55/19 42/51/19 69/70/19
f 69/70/19 42/51/19 43/54/19 70/65/19
f 72/71/20 45/48/20 44/50/20 71/68/20
f 65/64/21 38/45/21 45/48/21 72/71/21
f 30/46/22 48/72/22 55/73/22 37/47/22
f 37/47/8 55/73/8 54/74/8 36/49/8
f 34/52/8 52/75/8 53/76/8 35/53/8
f 33/56/8 51/77/8 52/75/8 34/52/8
f 36/49/8 54/74/8 51/77/8 33/56/8
f 31/58/15 49/78/15 101/79/15 102/59/15
f 35/53/23 53/76/23 49/78/23 31/58/23
f 100/62/17 105/80/17 48/72/17 30/46/17
f 48/72/24 57/4/24 64/37/24 55/73/24
f 55/73/8 64/37/8 63/27/8 54/74/8
f 52/75/8 61/36/8 62/5/8 53/76/8
f 51/77/8 60/30/8 61/36/8 52/75/8
f 54/74/8 63/27/8 60/30/8 51/77/8
f 49/78/15 58/8/15 106/10/15 101/79/15
f 53/76/25 62/5/25 58/8/25 49/78/25
f 105/80/17 83/1/17 57/4/17 48/72/17
f 74/81/26 65/64/26 72/71/26 81/82/26
f 81/82/27 72/71/27 71/68/27 80/83/27
f 78/84/19 69/70/19 70/65/19 79/85/19
f 77/86/19 68/69/19 69/70/19 78/84/19
f 80/83/19 71/68/19 68/69/19 77/86/19
f 75/87/28 66/66/28 107/67/28 85/88/28
f 79/85/29 70/65/29 66/66/29 75/87/29
f 108/89/30 104/63/30 65/64/30 74/81/30
f 98/90/31 108/89/31 74/81/31 3/91/31
f 19/92/32 79/85/32 75/87/32 7/12/32
f 7/12/33 75/87/33 85/88/33 86/13/33
f 21/93/19 80/83/19 77/86/19 9/94/19
f 9/94/19 77/86/19 78/84/19 15/95/19
f 15/95/19 78/84/19 79/85/19 19/92/19
f 25/96/34 81/82/34 80/83/34 21/93/34
f 3/91/35 74/81/35 81/82/35 25/96/35
f 56/97/36 2/98/36 84/99/36 83/100/36
f 76/101/36 5/102/36 86/13/36 85/88/36
f 5/102/36 18/103/36 87/104/36 86/13/36
f 2/98/36 26/105/36 88/106/36 84/99/36
f 11/107/36 24/108/36 89/109/36 90/110/36
f 12/111/36 16/112/36 91/113/36 92/114/36
f 14/115/36 11/107/36 90/110/36 93/116/36
f 16/112/36 20/117/36 94/118/36 91/113/36
f 18/103/36 14/115/36 93/116/36 87/104/36
f 20/117/36 6/119/36 95/9/36 94/118/36
f 22/120/36 12/111/36 92/114/36 96/121/36
f 24/108/36 28/122/36 97/123/36 89/109/36
f 26/105/36 22/120/36 96/121/36 88/106/36
f 28/122/36 1/124/36 98/125/36 97/123/36
f 46/126/36 29/127/36 100/128/36 99/129/36
f 50/130/36 32/131/36 102/59/36 101/79/36
f 32/131/36 40/132/36 103/60/36 102/59/36
f 73/133/36 46/126/36 99/129/36 104/134/36
f 29/127/36 47/135/36 105/136/36 100/128/36
f 59/137/36 50/130/36 101/79/36 106/10/36
f 47/135/36 56/97/36 83/100/36 105/136/36
f 6/119/36 59/137/36 106/10/36 95/9/36
f 40/132/36 67/138/36 107/67/36 103/60/36
f 82/139/36 73/133/36 104/134/36 108/140/36
f 67/138/36 76/101/36 85/88/36 107/67/36
f 1/124/36 82/139/36 108/140/36 98/125/36
o Cube.001_Cube.002
v -0.588509 -0.093656 0.673330
v -0.572429 1.083992 0.673330
v 0.586130 -0.096223 0.673330
v 0.587367 1.078037 0.673330
v 0.000000 -0.110384 0.673330
v 0.000000 1.103029 0.673330
v 0.359513 -0.110384 0.673330
v 0.359513 1.103029 0.673330
v 0.526183 -0.110384 0.673330
v 0.519301 1.103029 0.673330
v -0.359513 1.103029 0.673330
v -0.359513 -0.110384 0.673330
v -0.519637 1.103029 0.673330
v -0.524775 -0.110384 0.673330
v -0.606707 0.496323 0.673330
v 0.606707 0.496323 0.673330
v 0.606707 0.136810 0.673330
v -0.606707 0.136810 0.673330
v -0.606707 0.855836 0.673330
v 0.606707 0.855836 0.673330
v -0.606707 1.010643 0.673330
v 0.606707 1.017959 0.673330
v 0.606707 -0.028149 0.673330
v -0.606707 -0.030179 0.673330
v 0.590799 -0.087469 0.673330
v -0.594324 -0.083939 0.673330
v 0.000000 -0.112217 0.831803
v 0.000000 -0.089776 0.831803
v 0.359513 -0.112217 0.831803
v 0.359513 -0.089776 0.831803
v 0.539269 -0.112217 0.831803
v 0.526183 -0.089776 0.831803
v -0.359513 -0.112217 0.831803
v -0.359513 -0.089776 0.831803
v -0.520726 -0.106680 0.831803
v -0.550478 -0.095550 0.831803
v 0.000000 0.855836 0.831803
v 0.000000 0.496323 0.831803
v 0.359513 0.855836 0.831803
v 0.359513 0.496323 0.831803
v 0.539269 0.855836 0.831803
v 0.539269 0.496323 0.831803
v -0.359513 0.855836 0.831803
v -0.359513 0.496323 0.831803
v -0.539269 0.855836 0.831803
v -0.539269 0.496323 0.831803
v 0.588740 0.496323 0.831803
v -0.596026 0.488722 0.835122
v 0.000000 0.136810 0.831803
v 0.359513 0.136810 0.831803
v 0.539269 0.136810 0.831803
v -0.359513 0.136810 0.831803
v -0.539269 0.136810 0.831803
v -0.596026 0.129209 0.835122
v 0.588740 0.136810 0.831803
v 0.000000 1.035592 0.831803
v 0.359513 1.035592 0.831803
v 0.539269 1.035592 0.831803
v -0.359513 1.035592 0.831803
v -0.539269 1.035592 0.831803
v 0.588740 0.855836 0.831803
v -0.596026 0.848235 0.835122
v 0.000000 1.103029 0.831803
v 0.359513 1.103029 0.831803
v 0.513611 1.089097 0.831803
v -0.359513 1.103029 0.831803
v -0.508957 1.095429 0.835122
v 0.588740 1.017959 0.831803
v -0.596026 1.003042 0.835122
v 0.000000 -0.042947 0.831803
v 0.359513 -0.042947 0.831803
v 0.539269 -0.042947 0.831803
v -0.359513 -0.042947 0.831803
v -0.539269 -0.042947 0.831803
v 0.588740 -0.028149 0.831803
v -0.588164 -0.015344 0.831803
v -0.575781 -0.069105 0.831803
v 0.590799 -0.087469 0.831803
v -0.561749 1.076392 0.835122
v 0.561937 -0.084887 0.835361
v 0.581677 1.064105 0.831803
v -0.569966 -0.078821 0.831803
vt 0.605474 0.875000
vt 0.605474 0.937500
vt 0.605474 0.937500
vt 0.605474 0.875000
vt 0.437500 0.980474
vt 0.408546 0.980245
vt 0.408546 0.980245
vt 0.437500 0.980474
vt 0.394526 0.783525
vt 0.397906 0.773621
vt 0.397906 0.773621
vt 0.394526 0.783525
vt 0.398400 0.771633
vt 0.408876 0.769844
vt 0.408876 0.769844
vt 0.398400 0.771633
vt 0.602079 0.772111
vt 0.604836 0.785243
vt 0.604836 0.785243
vt 0.602079 0.772111
vt 0.437500 0.769526
vt 0.500000 0.769526
vt 0.500000 0.769526
vt 0.437500 0.769526
vt 0.400429 0.976793
vt 0.400429 0.976793
vt 0.394526 0.812500
vt 0.394526 0.812500
vt 0.562500 0.769526
vt 0.562500 0.769526
vt 0.602845 0.975574
vt 0.589413 0.980474
vt 0.589413 0.980474
vt 0.602845 0.975574
vt 0.605474 0.812500
vt 0.605474 0.812500
vt 0.500000 0.980474
vt 0.500000 0.980474
vt 0.590111 0.769995
vt 0.590111 0.769995
vt 0.394526 0.875000
vt 0.394526 0.875000
vt 0.398380 0.976295
vt 0.395623 0.964350
vt 0.395623 0.964350
vt 0.398380 0.976295
vt 0.562500 0.980474
vt 0.562500 0.980474
vt 0.605474 0.965337
vt 0.605474 0.965337
vt 0.394526 0.937500
vt 0.394526 0.937500
vt 0.593750 0.968750
vt 0.593750 0.812500
vt 0.593750 0.875000
vt 0.593750 0.781250
vt 0.593750 0.937500
vt 0.437500 0.937500
vt 0.500000 0.937500
vt 0.500000 0.968750
vt 0.437500 0.968750
vt 0.437500 0.875000
vt 0.500000 0.875000
vt 0.500000 0.781250
vt 0.437500 0.781250
vt 0.500000 0.812500
vt 0.437500 0.812500
vt 0.406250 0.968750
vt 0.406250 0.812500
vt 0.406250 0.875000
vt 0.406250 0.781250
vt 0.406250 0.937500
vt 0.562500 0.937500
vt 0.562500 0.968750
vt 0.562500 0.875000
vt 0.562500 0.781250
vt 0.562500 0.812500
vt 0.390625 0.937500
vt 0.390625 0.968750
vt 0.390625 0.875000
vt 0.390625 0.781250
vt 0.390625 0.812500
vn 0.0000 1.0000 0.0000
vn -0.9955 -0.0261 0.0914
vn 0.1900 -0.9754 0.1116
vn 0.9917 -0.1158 0.0562
vn 0.3431 0.9345 0.0945
vn 0.9936 0.0000 0.1127
vn 0.1858 -0.9814 0.0487
vn -0.9657 -0.2224 0.1338
vn 0.0000 -0.9917 0.1290
vn -0.9031 0.4220 0.0794
vn 0.0443 0.9980 0.0447
vn -0.9978 0.0000 0.0659
vn 0.9671 0.2404 0.0828
vn -0.3719 -0.9250 0.0782
vn -0.0243 0.9994 0.0245
vn 0.0161 -0.9935 0.1124
vn -0.3385 0.9386 0.0664
vn -0.8488 -0.5080 0.1469
vn 0.0543 -0.0512 0.9972
vn 0.0000 0.0000 1.0000
vn 0.0107 -0.0286 0.9995
vn 0.0584 0.0000 0.9983
vn 0.0296 -0.0095 0.9995
vn 0.0000 0.0000 -1.0000
vn -0.0047 0.1330 -0.9911
usemtl None
s off
f 114/141/37 119/142/37 174/143/37 171/144/37
f 126/145/38 132/146/38 184/147/38 162/148/38
f 117/149/39 111/150/39 188/151/39 140/152/39
f 133/153/40 131/154/40 183/155/40 186/156/40
f 112/157/41 118/158/41 173/159/41 189/160/41
f 125/161/42 124/162/42 155/163/42 163/164/42
f 111/150/43 133/153/43 186/156/43 188/151/43
f 132/146/44 134/165/44 185/166/44 184/147/44
f 115/167/45 117/149/45 140/152/45 138/168/45
f 124/162/42 128/169/42 169/170/42 155/163/42
f 110/171/46 129/172/46 177/173/46 187/174/46
f 131/154/42 125/161/42 163/164/42 183/155/42
f 118/158/47 116/175/47 172/176/47 173/159/47
f 123/177/48 126/145/48 162/148/48 156/178/48
f 130/179/49 112/157/49 189/160/49 176/180/49
f 113/181/45 115/167/45 138/168/45 136/182/45
f 109/183/50 122/184/50 144/185/50 190/186/50
f 129/172/48 127/187/48 170/188/48 177/173/48
f 116/175/37 114/141/37 171/144/37 172/176/37
f 119/142/51 121/189/51 175/190/51 174/143/51
f 128/169/42 130/179/42 176/180/42 169/170/42
f 120/191/45 113/181/45 136/182/45 142/192/45
f 122/184/52 120/191/52 142/192/52 144/185/52
f 127/187/48 123/177/48 156/178/48 170/188/48
f 121/189/53 110/171/53 187/174/53 175/190/53
f 134/165/54 109/183/54 190/186/54 185/166/54
f 168/193/55 175/190/55 187/174/55 177/173/55
f 165/194/56 172/176/56 171/144/56 164/195/56
f 166/196/56 173/159/56 172/176/56 165/194/56
f 176/180/56 189/160/56 173/159/56 166/196/56
f 164/195/56 171/144/56 174/143/56 167/197/56
f 167/197/57 174/143/57 175/190/57 168/193/57
f 160/198/56 152/199/56 154/200/56 161/201/56
f 157/202/56 146/203/56 152/199/56 160/198/56
f 163/164/56 155/163/56 150/204/56 159/205/56
f 159/205/56 150/204/56 148/206/56 158/207/56
f 158/207/56 148/206/56 146/203/56 157/202/56
f 161/201/58 154/200/58 156/178/58 162/148/58
f 182/208/59 161/201/59 162/148/59 184/147/59
f 179/209/56 158/207/56 157/202/56 178/210/56
f 180/211/56 159/205/56 158/207/56 179/209/56
f 183/155/56 163/164/56 159/205/56 180/211/56
f 178/210/56 157/202/56 160/198/56 181/212/56
f 181/212/56 160/198/56 161/201/56 182/208/56
f 152/199/56 151/213/56 153/214/56 154/200/56
f 146/203/56 145/215/56 151/213/56 152/199/56
f 155/163/56 169/170/56 149/216/56 150/204/56
f 150/204/56 149/216/56 147/217/56 148/206/56
f 148/206/56 147/217/56 145/215/56 146/203/56
f 154/200/58 153/214/58 170/188/58 156/178/58
f 151/213/56 167/197/56 168/193/56 153/214/56
f 145/215/56 164/195/56 167/197/56 151/213/56
f 169/170/56 176/180/56 166/196/56 149/216/56
f 149/216/56 166/196/56 165/194/56 147/217/56
f 147/217/56 165/194/56 164/195/56 145/215/56
f 153/214/58 168/193/58 177/173/58 170/188/58
f 141/218/56 181/212/56 182/208/56 143/219/56
f 135/220/56 178/210/56 181/212/56 141/218/56
f 186/156/56 183/155/56 180/211/56 139/221/56
f 139/221/56 180/211/56 179/209/56 137/222/56
f 137/222/56 179/209/56 178/210/56 135/220/56
f 143/219/56 182/208/56 184/147/56 185/166/56
f 144/185/56 143/219/56 185/166/56 190/186/56
f 138/168/60 137/222/60 135/220/60 136/182/60
f 140/152/60 139/221/60 137/222/60 138/168/60
f 188/151/61 186/156/61 139/221/61 140/152/61
f 136/182/60 135/220/60 141/218/60 142/192/60
f 142/192/60 141/218/60 143/219/60 144/185/60
