# Blender v3.0.1 OBJ File: 'rám.blend'
# www.blender.org
mtllib rám.mtl
o Cube
v 1.000000 1.000000 -0.806722
v 1.000000 -1.000000 -0.806722
v 0.909742 0.909742 -0.663696
v 0.909742 -0.909742 -0.663696
v -1.000000 1.000000 -0.806722
v -1.000000 -1.000000 -0.806722
v -0.909742 0.909742 -0.663696
v -0.909742 -0.909742 -0.663696
v -1.000000 -1.000000 -0.663696
v -1.000000 1.000000 -0.663696
v 1.000000 1.000000 -0.663696
v 1.000000 -1.000000 -0.663696
v 0.909742 0.909742 -0.765445
v 0.909742 -0.909742 -0.765445
v -0.909742 0.909742 -0.765445
v -0.909742 -0.909742 -0.765445
vt 0.625000 0.500000
vt 0.875000 0.500000
vt 0.875000 0.750000
vt 0.625000 0.750000
vt 0.386282 0.988718
vt 0.386282 0.761282
vt 0.386282 0.761282
vt 0.386282 0.988718
vt 0.375000 0.000000
vt 0.625000 0.000000
vt 0.625000 0.250000
vt 0.375000 0.250000
vt 0.125000 0.500000
vt 0.375000 0.500000
vt 0.375000 0.750000
vt 0.125000 0.750000
vt 0.613718 0.988718
vt 0.625000 1.000000
vt 0.375000 1.000000
vt 0.613718 0.761282
vt 0.613718 0.761282
vt 0.613718 0.988718
vn 0.0000 1.0000 0.0000
vn -1.0000 0.0000 0.0000
vn 0.0000 -1.0000 0.0000
vn 1.0000 0.0000 0.0000
vn 0.0000 0.0000 -1.0000
vn 0.0000 0.0000 1.0000
usemtl Material
s off
f 1/1/1 5/2/1 10/3/1 11/4/1
f 8/5/1 4/6/1 14/7/1 16/8/1
f 9/9/2 10/10/2 5/11/2 6/12/2
f 6/13/3 2/14/3 12/15/3 9/16/3
f 2/14/4 1/1/4 11/4/4 12/15/4
f 6/12/5 5/11/5 1/1/5 2/14/5
f 8/5/6 7/17/6 10/18/6 9/19/6
f 3/20/6 4/6/6 12/15/6 11/4/6
f 7/17/6 3/20/6 11/4/6 10/18/6
f 4/6/6 8/5/6 9/19/6 12/15/6
f 14/7/6 13/21/6 15/22/6 16/8/6
f 4/6/2 3/20/2 13/21/2 14/7/2
f 3/20/3 7/17/3 15/22/3 13/21/3
f 7/17/4 8/5/4 16/8/4 15/22/4
