# Blender v3.0.1 OBJ File: 'skrinka.blend'
# www.blender.org
mtllib skrinka.mtl
o Cube
v 0.339818 0.415756 -0.894282
v 0.339818 -0.894282 -0.894282
v 0.339818 0.415756 0.598947
v 0.339818 -0.894282 0.598947
v -1.000000 0.521475 -1.000000
v -1.000000 -1.000000 -1.000000
v -1.000000 0.521475 0.704665
v -1.000000 -1.000000 0.704665
v 0.339818 0.593543 -0.927931
v 0.339818 -1.000000 -1.000000
v 0.339818 0.593543 0.632597
v 0.339818 -1.000000 0.704665
v -0.829328 0.415756 -0.894282
v -0.829328 -0.894282 -0.894282
v -0.829328 0.415756 0.598947
v -0.829328 -0.894282 0.598947
v -1.000000 4.298178 -1.000000
v -1.000000 4.298178 0.704665
v 0.339818 4.226109 -0.927931
v 0.339818 4.226109 0.632597
v 0.339818 0.521475 -1.000000
v 0.339818 0.521475 0.704665
v 0.339818 4.298178 -1.000000
v 0.339818 4.298178 0.704665
v -0.858676 0.593543 -0.927931
v -0.858676 0.593543 0.632597
v -0.858676 4.226109 -0.927931
v -0.858676 4.226109 0.632597
vt 0.625000 1.000000
vt 0.625000 0.750000
vt 0.625000 0.750000
vt 0.625000 1.000000
vt 0.375000 0.750000
vt 0.375000 1.000000
vt 0.375000 0.000000
vt 0.625000 0.000000
vt 0.625000 0.250000
vt 0.375000 0.250000
vt 0.125000 0.500000
vt 0.375000 0.500000
vt 0.125000 0.750000
vt 0.607629 0.515504
vt 0.607629 0.734496
vt 0.607629 0.734496
vt 0.607629 0.515504
vt 0.625000 0.500000
vt 0.392371 0.515504
vt 0.392371 0.734496
vt 0.392371 0.515504
vt 0.392371 0.734496
vt 0.625000 0.500000
vt 0.875000 0.500000
vt 0.875000 0.750000
vt 0.625000 0.000000
vt 0.625000 0.250000
vt 0.625000 0.739431
vt 0.625000 0.739431
vt 0.625000 0.739431
vt 0.625000 0.739431
vt 0.625000 0.510569
vt 0.625000 0.510569
vt 0.625000 0.510569
vt 0.625000 0.510569
vn 0.0000 0.0000 1.0000
vn -1.0000 0.0000 0.0000
vn 0.0000 -1.0000 0.0000
vn 0.0000 0.0000 -1.0000
vn 1.0000 0.0000 0.0000
vn 0.0000 1.0000 0.0000
usemtl Material
s off
f 7/1/1 22/2/1 24/3/1 18/4/1
f 12/5/1 22/2/1 7/1/1 8/6/1
f 8/7/2 7/8/2 5/9/2 6/10/2
f 6/11/3 10/12/3 12/5/3 8/13/3
f 1/14/3 3/15/3 15/16/3 13/17/3
f 6/10/4 5/9/4 21/18/4 10/12/4
f 1/14/5 2/19/5 10/12/5 21/18/5
f 4/20/5 3/15/5 22/2/5 12/5/5
f 3/15/5 1/14/5 21/18/5 22/2/5
f 2/19/5 4/20/5 12/5/5 10/12/5
f 14/21/5 13/17/5 15/16/5 16/22/5
f 2/19/1 1/14/1 13/17/1 14/21/1
f 4/20/6 2/19/6 14/21/6 16/22/6
f 3/15/4 4/20/4 16/22/4 15/16/4
f 23/23/6 17/24/6 18/25/6 24/3/6
f 5/9/2 7/8/2 18/26/2 17/27/2
f 20/28/4 11/29/4 26/30/4 28/31/4
f 21/18/4 5/9/4 17/27/4 23/23/4
f 9/32/5 11/29/5 22/2/5 21/18/5
f 20/28/5 19/33/5 23/23/5 24/3/5
f 11/29/5 20/28/5 24/3/5 22/2/5
f 19/33/5 9/32/5 21/18/5 23/23/5
f 26/30/5 25/34/5 27/35/5 28/31/5
f 11/29/6 9/32/6 25/34/6 26/30/6
f 9/32/1 19/33/1 27/35/1 25/34/1
f 19/33/3 20/28/3 28/31/3 27/35/3
